HIERARCHY
ROOT Hips
{
  OFFSET 5.80788e-005 67.184 3.4734
  CHANNELS 6 Xposition Yposition Zposition Zrotation Xrotation Yrotation
  JOINT Chest
  {
    OFFSET 0 8.7983 -4.7612
    CHANNELS 6 Xposition Yposition Zposition Zrotation Xrotation Yrotation
    JOINT Chest2
    {
      OFFSET 0 8.0291 0.4195
      CHANNELS 6 Xposition Yposition Zposition Zrotation Xrotation Yrotation
      JOINT Chest3
      {
        OFFSET 0 9.9351 -2.2114
        CHANNELS 6 Xposition Yposition Zposition Zrotation Xrotation Yrotation
        JOINT Neck
        {
          OFFSET 0 22.3885 -0.4656
          CHANNELS 6 Xposition Yposition Zposition Zrotation Xrotation Yrotation
          JOINT Head
          {
            OFFSET -0.0001 12.643 3.4389
            CHANNELS 6 Xposition Yposition Zposition Zrotation Xrotation Yrotation
            End Site
            {
              OFFSET 0.0001 17.6655 0.5274
            }
          }
        }
        JOINT LeftCollar
        {
          OFFSET 2.2603 21.606 7.4023
          CHANNELS 6 Xposition Yposition Zposition Zrotation Xrotation Yrotation
          JOINT LeftShoulder
          {
            OFFSET 13.5163 -1.1332 -5.0146
            CHANNELS 6 Xposition Yposition Zposition Zrotation Xrotation Yrotation
            JOINT LeftElbow
            {
              OFFSET -0.0995 -28.05 -0.2431
              CHANNELS 6 Xposition Yposition Zposition Zrotation Xrotation Yrotation
              JOINT LeftWrist
              {
                OFFSET 0.0679 -23.3996 -0.1402
                CHANNELS 6 Xposition Yposition Zposition Zrotation Xrotation Yrotation
                JOINT LeftFinger1
                {
                  OFFSET 0.7932 -9.069 2.5189
                  CHANNELS 6 Xposition Yposition Zposition Zrotation Xrotation Yrotation
                  JOINT LeftFinger11
                  {
                    OFFSET -0.8272 -3.3923 0.5977
                    CHANNELS 6 Xposition Yposition Zposition Zrotation Xrotation Yrotation
                    JOINT LeftFinger12
                    {
                      OFFSET -0.5649 -2.3158 0.4082
                      CHANNELS 6 Xposition Yposition Zposition Zrotation Xrotation Yrotation
                      End Site
                      {
                        OFFSET -0.4919 -1.6479 0.2673
                      }
                    }
                  }
                }
                JOINT LeftFinger2
                {
                  OFFSET 0.9159 -9.2044 0.2193
                  CHANNELS 6 Xposition Yposition Zposition Zrotation Xrotation Yrotation
                  JOINT LeftFinger21
                  {
                    OFFSET 0.0117 -4.1944 -0.0248
                    CHANNELS 6 Xposition Yposition Zposition Zrotation Xrotation Yrotation
                    JOINT LeftFinger22
                    {
                      OFFSET 0.0071 -2.3249 -0.0142
                      CHANNELS 6 Xposition Yposition Zposition Zrotation Xrotation Yrotation
                      End Site
                      {
                        OFFSET -0.1475 -2.0882 0.0028
                      }
                    }
                  }
                }
                JOINT LeftFinger3
                {
                  OFFSET 0.6113 -8.7231 -2.0637
                  CHANNELS 6 Xposition Yposition Zposition Zrotation Xrotation Yrotation
                  JOINT LeftFinger31
                  {
                    OFFSET -0.1927 -3.8059 -0.2383
                    CHANNELS 6 Xposition Yposition Zposition Zrotation Xrotation Yrotation
                    JOINT LeftFinger32
                    {
                      OFFSET -0.1091 -2.1688 -0.1362
                      CHANNELS 6 Xposition Yposition Zposition Zrotation Xrotation Yrotation
                      End Site
                      {
                        OFFSET -0.2358 -1.9176 -0.0906
                      }
                    }
                  }
                }
                JOINT LeftFinger4
                {
                  OFFSET -0.6151 -8.0947 -3.5641
                  CHANNELS 6 Xposition Yposition Zposition Zrotation Xrotation Yrotation
                  JOINT LeftFinger41
                  {
                    OFFSET -0.4882 -2.341 -0.6462
                    CHANNELS 6 Xposition Yposition Zposition Zrotation Xrotation Yrotation
                    JOINT LeftFinger42
                    {
                      OFFSET -0.3575 -1.7167 -0.4742
                      CHANNELS 6 Xposition Yposition Zposition Zrotation Xrotation Yrotation
                      End Site
                      {
                        OFFSET -0.4187 -1.5237 -0.3496
                      }
                    }
                  }
                }
                JOINT LeftFinger0
                {
                  OFFSET -1.42 -1.8761 1.4223
                  CHANNELS 6 Xposition Yposition Zposition Zrotation Xrotation Yrotation
                  JOINT LeftFinger01
                  {
                    OFFSET -1.1471 -3.4929 2.6334
                    CHANNELS 6 Xposition Yposition Zposition Zrotation Xrotation Yrotation
                    JOINT LeftFinger02
                    {
                      OFFSET -0.823 -2.3 1.6571
                      CHANNELS 6 Xposition Yposition Zposition Zrotation Xrotation Yrotation
                      End Site
                      {
                        OFFSET -0.5822 -1.6914 1.1582
                      }
                    }
                  }
                }
              }
            }
          }
        }
        JOINT RightCollar
        {
          OFFSET -2.2603 21.606 7.4023
          CHANNELS 6 Xposition Yposition Zposition Zrotation Xrotation Yrotation
          JOINT RightShoulder
          {
            OFFSET -13.5187 -1.1334 -5.0155
            CHANNELS 6 Xposition Yposition Zposition Zrotation Xrotation Yrotation
            JOINT RightElbow
            {
              OFFSET 0.0994 -28.0499 -0.2431
              CHANNELS 6 Xposition Yposition Zposition Zrotation Xrotation Yrotation
              JOINT RightWrist
              {
                OFFSET -0.0679 -23.3996 -0.1402
                CHANNELS 6 Xposition Yposition Zposition Zrotation Xrotation Yrotation
                JOINT RightFinger1
                {
                  OFFSET -0.7932 -9.0691 2.5189
                  CHANNELS 6 Xposition Yposition Zposition Zrotation Xrotation Yrotation
                  JOINT RightFinger11
                  {
                    OFFSET 0.8272 -3.3923 0.5977
                    CHANNELS 6 Xposition Yposition Zposition Zrotation Xrotation Yrotation
                    JOINT RightFinger12
                    {
                      OFFSET 0.565 -2.3158 0.4082
                      CHANNELS 6 Xposition Yposition Zposition Zrotation Xrotation Yrotation
                      End Site
                      {
                        OFFSET 0.4919 -1.6479 0.2673
                      }
                    }
                  }
                }
                JOINT RightFinger2
                {
                  OFFSET -0.916 -9.2044 0.2193
                  CHANNELS 6 Xposition Yposition Zposition Zrotation Xrotation Yrotation
                  JOINT RightFinger21
                  {
                    OFFSET -0.0117 -4.1944 -0.0248
                    CHANNELS 6 Xposition Yposition Zposition Zrotation Xrotation Yrotation
                    JOINT RightFinger22
                    {
                      OFFSET -0.0071 -2.3249 -0.0142
                      CHANNELS 6 Xposition Yposition Zposition Zrotation Xrotation Yrotation
                      End Site
                      {
                        OFFSET 0.1475 -2.0882 0.0028
                      }
                    }
                  }
                }
                JOINT RightFinger3
                {
                  OFFSET -0.6113 -8.7231 -2.0637
                  CHANNELS 6 Xposition Yposition Zposition Zrotation Xrotation Yrotation
                  JOINT RightFinger31
                  {
                    OFFSET 0.1927 -3.8059 -0.2383
                    CHANNELS 6 Xposition Yposition Zposition Zrotation Xrotation Yrotation
                    JOINT RightFinger32
                    {
                      OFFSET 0.1091 -2.1688 -0.1362
                      CHANNELS 6 Xposition Yposition Zposition Zrotation Xrotation Yrotation
                      End Site
                      {
                        OFFSET 0.2358 -1.9176 -0.0906
                      }
                    }
                  }
                }
                JOINT RightFinger4
                {
                  OFFSET 0.6151 -8.0947 -3.564
                  CHANNELS 6 Xposition Yposition Zposition Zrotation Xrotation Yrotation
                  JOINT RightFinger41
                  {
                    OFFSET 0.4882 -2.341 -0.6462
                    CHANNELS 6 Xposition Yposition Zposition Zrotation Xrotation Yrotation
                    JOINT RightFinger42
                    {
                      OFFSET 0.3574 -1.7166 -0.4742
                      CHANNELS 6 Xposition Yposition Zposition Zrotation Xrotation Yrotation
                      End Site
                      {
                        OFFSET 0.4187 -1.5237 -0.3496
                      }
                    }
                  }
                }
                JOINT RightFinger0
                {
                  OFFSET 1.4199 -1.8761 1.4221
                  CHANNELS 6 Xposition Yposition Zposition Zrotation Xrotation Yrotation
                  JOINT RightFinger01
                  {
                    OFFSET 1.1472 -3.4929 2.6336
                    CHANNELS 6 Xposition Yposition Zposition Zrotation Xrotation Yrotation
                    JOINT RightFinger02
                    {
                      OFFSET 0.8229 -2.3 1.6571
                      CHANNELS 6 Xposition Yposition Zposition Zrotation Xrotation Yrotation
                      End Site
                      {
                        OFFSET 0.5822 -1.6914 1.1582
                      }
                    }
                  }
                }
              }
            }
          }
        }
      }
    }
  }
  JOINT RightHip
  {
    OFFSET -9.412 3.9771 -0.7758
    CHANNELS 6 Xposition Yposition Zposition Zrotation Xrotation Yrotation
    JOINT RightKnee
    {
      OFFSET -0.7531 -40.938 0
      CHANNELS 6 Xposition Yposition Zposition Zrotation Xrotation Yrotation
      JOINT RightAnkle
      {
        OFFSET 0 -40.1986 0
        CHANNELS 6 Xposition Yposition Zposition Zrotation Xrotation Yrotation
        JOINT RightToe
        {
          OFFSET 0 -4.4182 9.239
          CHANNELS 6 Xposition Yposition Zposition Zrotation Xrotation Yrotation
          End Site
          {
            OFFSET 0 0 6.1981
          }
        }
      }
    }
  }
  JOINT LeftHip
  {
    OFFSET 9.4119 3.9773 -0.7758
    CHANNELS 6 Xposition Yposition Zposition Zrotation Xrotation Yrotation
    JOINT LeftKnee
    {
      OFFSET 0.7532 -40.9383 0
      CHANNELS 6 Xposition Yposition Zposition Zrotation Xrotation Yrotation
      JOINT LeftAnkle
      {
        OFFSET 0 -40.1986 0
        CHANNELS 6 Xposition Yposition Zposition Zrotation Xrotation Yrotation
        JOINT LeftToe
        {
          OFFSET 0 -4.4182 9.239
          CHANNELS 6 Xposition Yposition Zposition Zrotation Xrotation Yrotation
          End Site
          {
            OFFSET 0 0 6.1981
          }
        }
      }
    }
  }
}
MOTION
Frames:	4
Frame Time:	0.0333333
5.80788e-005 67.184 3.4734 0 0 -0 0 8.7983 -4.7612 0 0 -0 0 8.0291 0.4195 0 0 -0 0 9.9351 -2.2114 0 0 -0 0 22.3885 -0.4656 0 0 -0 -0.0001 12.643 3.4389 0 0 -0 2.2603 21.606 7.4023 0 0 -12.5014 13.5163 -1.1332 -5.0146 88.1196 14.2451 10.6914 -0.0995 -28.05 -0.2431 -0.00160068 -0.00239207 0.000740045 0.0679 -23.3996 -0.1402 -8.4365e-005 7.00714e-005 -9.52055e-007 0.7932 -9.069 2.5189 9.93923e-017 -1.98785e-016 -1.59028e-015 -0.8272 -3.3923 0.5977 9.93923e-017 -5.96354e-016 -1.59028e-015 -0.5649 -2.3158 0.4082 -9.93923e-017 -5.96354e-016 -1.59028e-015 0.9159 -9.2044 0.2193 9.93923e-017 -1.98785e-016 -1.59028e-015 0.0117 -4.1944 -0.0248 -0.0128176 0.00232552 8.52707e-005 0.0071 -2.3249 -0.0142 9.93923e-017 5.96354e-016 -0 0.6113 -8.7231 -2.0637 9.93923e-017 -1.98785e-016 -1.59028e-015 -0.1927 -3.8059 -0.2383 -0.0160551 0.00299681 0.000857156 -0.1091 -2.1688 -0.1362 -2.48481e-016 0 3.18055e-015 -0.6151 -8.0947 -3.5641 9.93923e-017 -1.98785e-016 -1.59028e-015 -0.4882 -2.341 -0.6462 -0.0125865 0.0031206 0.00282719 -0.3575 -1.7167 -0.4742 0 1.98785e-016 -0 -1.42 -1.8761 1.4223 9.93923e-017 -1.98785e-016 -1.59028e-015 -1.1471 -3.4929 2.6334 9.93923e-017 -5.96354e-016 -1.59028e-015 -0.823 -2.3 1.6571 -9.93923e-017 -5.96354e-016 -1.59028e-015 -2.2603 21.606 7.4023 -0.865644 0.16582 7.03859 -13.5187 -1.1334 -5.0155 -88.0329 10.2057 -10.5567 0.0994 -28.0499 -0.2431 0.0015593 -0.00248883 -0.000788628 -0.0679 -23.3996 -0.1402 7.87605e-005 4.10553e-005 1.24965e-005 -0.7932 -9.0691 2.5189 -3.97569e-016 -7.95139e-016 3.18055e-015 0.8272 -3.3923 0.5977 -1.98785e-016 -3.97569e-016 3.18055e-015 0.565 -2.3158 0.4082 -1.98785e-016 0 3.18055e-015 -0.916 -9.2044 0.2193 -3.97569e-016 -7.95139e-016 3.18055e-015 -0.0117 -4.1944 -0.0248 0.0129473 0.00231697 -8.70038e-005 -0.0071 -2.3249 -0.0142 9.93923e-017 -7.95139e-016 1.59028e-015 -0.6113 -8.7231 -2.0637 -3.97569e-016 -7.95139e-016 3.18055e-015 0.1927 -3.8059 -0.2383 0.0163314 0.00303369 -0.000872333 0.1091 -2.1688 -0.1362 3.97569e-016 7.95139e-016 -3.18055e-015 0.6151 -8.0947 -3.564 -3.97569e-016 -7.95139e-016 3.18055e-015 0.4882 -2.341 -0.6462 0.0145763 0.00367772 -0.00326275 0.3574 -1.7166 -0.4742 9.93923e-017 -3.97569e-016 -0 1.4199 -1.8761 1.4221 -3.97569e-016 -7.95139e-016 3.18055e-015 1.1472 -3.4929 2.6336 -1.98785e-016 -3.97569e-016 3.18055e-015 0.8229 -2.3 1.6571 -1.98785e-016 0 3.18055e-015 -9.412 3.9771 -0.7758 3.42485 1.36937 -0.0640303 -0.7531 -40.938 0 0.000136572 0.69354 0.00145564 1.77636e-015 -40.1986 -1.11022e-016 -3.42573 -2.06297 -0.0607933 8.88178e-016 -4.4182 9.239 -3.19502e-024 0 -1.48106e-024 9.4119 3.9773 -0.7758 -3.42498 1.36123 0.0639712 0.7532 -40.9383 2.22045e-016 -6.769e-005 0.712612 -0.0012277 8.88179e-016 -40.1986 0 3.42582 -2.07388 0.0612819 -8.88178e-016 -4.4182 9.239 2.55305e-023 0 -2.31416e-026 
35.5057 34.0918 -2.78809 -1.29605e-008 25.9502 1.33598e-008 0 8.7983 -4.7612 -0.0526575 1.45169 -0.35066 0 8.0291 0.4195 -0.0964695 2.90365 -0.700318 7.10543e-015 9.9351 -2.2114 -0.0964694 2.90364 -0.700318 0 22.3885 -0.4656 1.06212e-005 -16.922 2.37043e-005 -0.0001 12.643 3.4389 -1.54937e-007 -0.33982 1.01595e-007 2.2603 21.606 7.4023 -9.63015 8.05909 -36.1872 13.5163 -1.1332 -5.0146 66.882 22.318 20.9076 -0.0995 -28.05 -0.2431 -55.804 -17.7901 -25.3744 0.0679 -23.3996 -0.1402 42.5438 -16.65 10.1017 0.7932 -9.069 2.5189 -5.60401e-006 -5.15664e-006 -3.79642e-006 -0.8272 -3.3923 0.5977 4.77083e-015 0 -3.18055e-015 -0.5649 -2.3158 0.4082 -2.80172e-006 1.16289e-006 6.54697e-007 0.9159 -9.2044 0.2193 -5.60401e-006 -5.15664e-006 -3.79642e-006 0.0117 -4.1944 -0.0248 -0.0128167 0.00233226 8.76793e-005 0.0071 -2.3249 -0.0142 -1.76556e-031 -3.18055e-015 -3.18055e-015 0.6113 -8.7231 -2.0637 -5.60401e-006 -5.15664e-006 -3.79642e-006 -0.1927 -3.8059 -0.2383 -0.0160201 0.00299313 0.000848816 -0.1091 -2.1688 -0.1362 -1.03164e-005 2.0287e-006 6.2099e-006 -0.6151 -8.0947 -3.5641 -5.60401e-006 -5.15664e-006 -3.79642e-006 -0.4882 -2.341 -0.6462 -0.0126035 0.0031291 0.00283188 -0.3575 -1.7167 -0.4742 0 0 -6.36111e-015 -1.42 -1.8761 1.4223 -5.60401e-006 -5.15664e-006 -3.79642e-006 -1.1471 -3.4929 2.6334 4.77083e-015 0 -3.18055e-015 -0.823 -2.3 1.6571 -2.80172e-006 1.16289e-006 6.54697e-007 -2.2603 21.606 7.4023 7.98458 7.69817 30.2913 -13.5187 -1.1334 -5.0155 -67.1243 18.8376 -18.6247 0.0994 -28.0499 -0.2431 58.775 -17.9792 27.3409 -0.0679 -23.3996 -0.1402 -43.2362 -15.8515 -11.0049 -0.7932 -9.0691 2.5189 4.77083e-015 6.36111e-015 -6.36111e-015 0.8272 -3.3923 0.5977 2.12102e-006 1.91228e-006 4.29459e-006 0.565 -2.3158 0.4082 9.54166e-015 0 -0 -0.916 -9.2044 0.2193 4.77083e-015 6.36111e-015 -6.36111e-015 -0.0117 -4.1944 -0.0248 0.0129598 0.00231736 -8.23025e-005 -0.0071 -2.3249 -0.0142 6.2377e-006 4.73446e-007 3.30982e-007 -0.6113 -8.7231 -2.0637 4.77083e-015 6.36111e-015 -6.36111e-015 0.1927 -3.8059 -0.2383 0.0163331 0.00303503 -0.000867335 0.1091 -2.1688 -0.1362 -4.77083e-015 1.46626e-006 3.18055e-015 0.6151 -8.0947 -3.564 4.77083e-015 6.36111e-015 -6.36111e-015 0.4882 -2.341 -0.6462 0.0145704 0.0036627 -0.00325026 0.3574 -1.7166 -0.4742 3.18055e-015 9.54166e-015 -0 1.4199 -1.8761 1.4221 4.77083e-015 6.36111e-015 -6.36111e-015 1.1472 -3.4929 2.6336 2.12102e-006 1.91228e-006 4.29459e-006 0.8229 -2.3 1.6571 9.54166e-015 0 -0 -9.412 3.9771 -0.7758 -7.34747 -31.4626 -17.3387 -0.7531 -40.938 4.44089e-016 -153.287 86.505 151.238 3.55271e-015 -40.1986 9.99201e-016 14.3747 41.7338 -22.9758 3.55271e-015 -4.4182 9.239 -1.00644e-006 9.35758e-008 1.19339e-006 9.4119 3.9773 -0.7758 7.22666 -31.3862 17.1935 0.7532 -40.9383 0 153.747 86.6517 -151.645 7.10543e-015 -40.1986 -1.77636e-015 -14.0219 40.9336 22.6703 0 -4.4182 9.239 -5.61373e-006 -1.4632e-005 -3.52135e-006 
41.3155 28.7038 -3.17537 -1.10681e-007 28.897 1.50402e-007 0 8.7983 -4.7612 -0.0448318 1.85122 -0.413173 7.10543e-015 8.0291 0.4195 -0.0763574 3.70267 -0.825541 -7.10543e-015 9.9351 -2.2114 -0.0763574 3.70268 -0.825543 1.42109e-014 22.3885 -0.4656 -8.64492e-006 -19.8728 -1.86266e-005 -0.0001 12.643 3.4389 3.60446e-007 -0.675683 2.9014e-007 2.2603 21.606 7.4023 -10.5748 9.08056 -40.15 13.5163 -1.1332 -5.0146 63.2079 23.3602 22.6116 -0.0995 -28.05 -0.2431 -63.9927 -21.1419 -28.5518 0.0679 -23.3996 -0.1402 49.2266 -18.8322 12.0743 0.7932 -9.069 2.5189 -7.13171e-006 1.40758e-005 9.26617e-006 -0.8272 -3.3923 0.5977 6.89198e-006 -4.50999e-006 -6.508e-006 -0.5649 -2.3158 0.4082 1.59028e-015 -3.18055e-015 -0 0.9159 -9.2044 0.2193 -7.13171e-006 1.40758e-005 9.26617e-006 0.0117 -4.1944 -0.0248 -0.0128086 0.00232369 8.79218e-005 0.0071 -2.3249 -0.0142 -3.18055e-015 -9.54166e-015 1.59028e-014 0.6113 -8.7231 -2.0637 -7.13171e-006 1.40758e-005 9.26617e-006 -0.1927 -3.8059 -0.2383 -0.0159856 0.00298347 0.000849546 -0.1091 -2.1688 -0.1362 -1.76556e-031 -3.18055e-015 -3.18055e-015 -0.6151 -8.0947 -3.5641 -7.13171e-006 1.40758e-005 9.26617e-006 -0.4882 -2.341 -0.6462 -0.0126017 0.00311917 0.00282194 -0.3575 -1.7167 -0.4742 1.56611e-006 -9.53025e-007 2.77063e-006 -1.42 -1.8761 1.4223 -7.13171e-006 1.40758e-005 9.26617e-006 -1.1471 -3.4929 2.6334 6.89198e-006 -4.50999e-006 -6.508e-006 -0.823 -2.3 1.6571 1.59028e-015 -3.18055e-015 -0 -2.2603 21.606 7.4023 8.84245 8.65401 34.1718 -13.5187 -1.1334 -5.0155 -63.6294 20.1634 -19.954 0.0994 -28.0499 -0.2431 67.2781 -21.365 30.5801 -0.0679 -23.3996 -0.1402 -50.0208 -17.8628 -13.1055 -0.7932 -9.0691 2.5189 3.42941e-007 -2.08293e-007 -2.9941e-006 0.8272 -3.3923 0.5977 -9.052e-006 6.26932e-006 -1.03592e-006 0.565 -2.3158 0.4082 -1.45902e-006 -2.03177e-006 -2.9141e-006 -0.916 -9.2044 0.2193 3.42941e-007 -2.08293e-007 -2.9941e-006 -0.0117 -4.1944 -0.0248 0.0129405 0.00232501 -8.9784e-005 -0.0071 -2.3249 -0.0142 -1.45867e-006 -2.03206e-006 -2.91416e-006 -0.6113 -8.7231 -2.0637 3.42941e-007 -2.08293e-007 -2.9941e-006 0.1927 -3.8059 -0.2383 0.0163217 0.00304202 -0.000877164 0.1091 -2.1688 -0.1362 -7.29286e-007 -1.18062e-006 -1.4571e-006 0.6151 -8.0947 -3.564 3.42941e-007 -2.08293e-007 -2.9941e-006 0.4882 -2.341 -0.6462 0.0145517 0.00367411 -0.00325593 0.3574 -1.7166 -0.4742 -3.86749e-007 -2.9078e-006 -4.45107e-006 1.4199 -1.8761 1.4221 3.42941e-007 -2.08293e-007 -2.9941e-006 1.1472 -3.4929 2.6336 -9.052e-006 6.26932e-006 -1.03592e-006 0.8229 -2.3 1.6571 -1.45902e-006 -2.03177e-006 -2.9141e-006 -9.412 3.9771 -0.7758 -10.4556 -34.3444 -21.132 -0.7531 -40.938 0 -173.56 73.2678 170.77 -3.55271e-015 -40.1986 0 23.0464 47.9916 -30.8505 0 -4.4182 9.239 -8.74653e-015 9.54166e-015 1.59028e-015 9.4119 3.9773 -0.7758 10.2925 -34.2659 20.9523 0.7532 -40.9383 0 173.92 73.3957 -171.079 7.10543e-015 -40.1986 1.77636e-015 -22.3767 47.0998 30.2557 0 -4.4182 9.239 -3.30603e-006 -1.44279e-006 -1.19282e-007 
39.84 29.8654 -2.11826 -6.03332e-009 26.1956 6.93564e-009 -7.10543e-015 8.7983 -4.7612 -0.0503749 1.99318 -0.39617 -7.10543e-015 8.0291 0.4195 -0.087028 3.98662 -0.791301 0 9.9351 -2.2114 -0.0870281 3.98665 -0.791304 0 22.3885 -0.4656 1.43349e-006 -19.3962 2.01209e-006 -0.0001 12.643 3.4389 5.10013e-008 -1.01078 -1.46589e-008 2.2603 21.606 7.4023 -10.3501 8.83296 -39.1408 13.5163 -1.1332 -5.0146 64.0284 22.9112 22.2098 -0.0995 -28.05 -0.2431 -61.2479 -20.1744 -27.4811 0.0679 -23.3996 -0.1402 46.6552 -17.9984 11.3854 0.7932 -9.069 2.5189 7.80619e-007 4.7739e-006 1.37613e-006 -0.8272 -3.3923 0.5977 7.86147e-006 -1.15471e-005 -1.29763e-005 -0.5649 -2.3158 0.4082 -4.89212e-007 1.21966e-005 1.38638e-005 0.9159 -9.2044 0.2193 7.80619e-007 4.7739e-006 1.37613e-006 0.0117 -4.1944 -0.0248 -0.0128776 0.00233718 7.74872e-005 0.0071 -2.3249 -0.0142 9.54166e-015 3.18055e-015 -3.18055e-015 0.6113 -8.7231 -2.0637 7.80619e-007 4.7739e-006 1.37613e-006 -0.1927 -3.8059 -0.2383 -0.0160797 0.00299046 0.000854371 -0.1091 -2.1688 -0.1362 4.46672e-006 4.68974e-006 1.82012e-006 -0.6151 -8.0947 -3.5641 7.80619e-007 4.7739e-006 1.37613e-006 -0.4882 -2.341 -0.6462 -0.0126067 0.00312445 0.00282751 -0.3575 -1.7167 -0.4742 -1.45295e-006 2.34115e-006 4.66142e-007 -1.42 -1.8761 1.4223 7.80619e-007 4.7739e-006 1.37613e-006 -1.1471 -3.4929 2.6334 7.86147e-006 -1.15471e-005 -1.29763e-005 -0.823 -2.3 1.6571 -4.89212e-007 1.21966e-005 1.38638e-005 -2.2603 21.606 7.4023 8.6388 8.42218 33.1839 -13.5187 -1.1334 -5.0155 -64.5188 19.829 -19.6163 0.0994 -28.0499 -0.2431 64.2051 -20.3925 29.3871 -0.0679 -23.3996 -0.1402 -47.377 -17.1263 -12.4075 -0.7932 -9.0691 2.5189 3.18055e-015 3.18055e-015 -0 0.8272 -3.3923 0.5977 1.43303e-006 1.22409e-006 -4.03891e-007 0.565 -2.3158 0.4082 -1.11319e-014 -3.18055e-015 -6.36111e-015 -0.916 -9.2044 0.2193 3.18055e-015 3.18055e-015 -0 -0.0117 -4.1944 -0.0248 0.0129362 0.00231628 -8.67639e-005 -0.0071 -2.3249 -0.0142 1.59028e-015 -6.36111e-015 3.18055e-015 -0.6113 -8.7231 -2.0637 3.18055e-015 3.18055e-015 -0 0.1927 -3.8059 -0.2383 0.0163252 0.00303691 -0.000872195 0.1091 -2.1688 -0.1362 -4.77083e-015 3.18055e-015 -3.18055e-015 0.6151 -8.0947 -3.564 3.18055e-015 3.18055e-015 -0 0.4882 -2.341 -0.6462 0.0145699 0.00368697 -0.00326754 0.3574 -1.7166 -0.4742 -1.57193e-008 -8.37726e-007 -3.2994e-006 1.4199 -1.8761 1.4221 3.18055e-015 3.18055e-015 -0 1.1472 -3.4929 2.6336 1.43303e-006 1.22409e-006 -4.03891e-007 0.8229 -2.3 1.6571 -1.11319e-014 -3.18055e-015 -6.36111e-015 -9.412 3.9771 -0.7758 -9.15747 -30.6002 -19.3819 -0.7531 -40.938 0 -171.918 77.69 169.399 3.55271e-015 -40.1986 1.33227e-015 20.5285 46.4939 -28.5612 0 -4.4182 9.239 -8.64872e-006 3.59372e-006 7.64942e-007 9.4119 3.9773 -0.7758 9.01119 -30.5423 19.2198 0.7532 -40.9383 -3.55271e-015 172.364 77.8101 -169.79 7.10543e-015 -40.1986 1.77636e-015 -19.9581 45.6219 28.058 7.10543e-015 -4.4182 9.239 4.32629e-007 4.27137e-006 9.99618e-007 
